<?xml version="1.0" standalone="no"?>
<!DOCTYPE svg PUBLIC "-//W3C//DTD SVG 20010904//EN"
 "http://www.w3.org/TR/2001/REC-SVG-20010904/DTD/svg10.dtd">
<svg version="1.0" xmlns="http://www.w3.org/2000/svg"
 width="606.000000pt" height="606.000000pt" viewBox="0 0 606.000000 606.000000"
 preserveAspectRatio="xMidYMid meet">
<metadata>
Created by potrace 1.11, written by Peter Selinger 2001-2013
</metadata>
<g transform="translate(0.000000,606.000000) scale(0.100000,-0.100000)"
fill="#000000" stroke="none">
<path d="M2970 4955 c-7 -8 -16 -13 -20 -10 -5 3 -12 0 -16 -6 -5 -8 -3 -9 6
-4 9 5 11 4 6 -4 -6 -9 -11 -9 -24 1 -12 10 -14 10 -8 1 4 -8 1 -13 -8 -13 -9
0 -16 6 -16 13 0 6 -5 4 -11 -6 -6 -9 -15 -15 -20 -12 -5 4 -7 10 -4 15 3 5 1
11 -4 15 -6 3 -8 -3 -6 -14 2 -11 -3 -22 -10 -25 -10 -3 -12 0 -8 11 4 11 2
14 -5 9 -7 -4 -12 -15 -12 -24 0 -15 -2 -15 -10 -2 -8 12 -10 12 -11 -5 0 -11
-3 -14 -6 -7 -2 6 -9 12 -14 12 -6 0 -7 -4 -4 -10 3 -5 1 -10 -4 -10 -6 0 -11
7 -11 16 0 14 -2 14 -15 1 -8 -9 -24 -13 -36 -10 -16 5 -20 3 -14 -6 5 -9 0
-12 -16 -11 -40 4 -50 1 -44 -12 4 -7 -1 -4 -9 6 -15 18 -16 18 -16 2 0 -16
-1 -16 -16 -2 -17 18 -28 21 -19 6 3 -5 1 -10 -4 -10 -6 0 -11 8 -12 18 0 15
-1 14 -8 -3 -8 -19 -8 -19 -19 0 -7 12 -12 15 -12 6 0 -8 -7 -11 -20 -8 -11 3
-23 0 -27 -5 -4 -7 -1 -8 7 -3 9 5 11 4 6 -4 -6 -9 -11 -9 -22 0 -7 6 -11 15
-8 20 3 5 0 9 -5 9 -6 0 -11 -10 -11 -22 0 -17 -3 -19 -9 -9 -6 9 -20 12 -40
9 -18 -3 -31 0 -32 6 0 6 -4 2 -9 -9 l-9 -20 0 20 c-1 15 -3 17 -10 6 -7 -11
-10 -10 -18 4 -9 16 -10 16 -17 0 -3 -9 -3 -22 0 -28 3 -7 -2 -3 -10 7 -14 17
-16 17 -16 4 0 -9 -5 -20 -12 -24 -7 -4 -8 -3 -4 4 4 7 3 12 -3 12 -5 0 -13
-10 -16 -21 -6 -17 -9 -19 -16 -8 -6 10 -9 11 -9 2 0 -7 -9 -13 -19 -13 -29 0
-52 -11 -45 -22 4 -6 -3 -5 -15 1 -15 8 -21 9 -21 1 0 -6 -5 -8 -12 -4 -8 5
-9 2 -5 -9 3 -9 1 -19 -5 -23 -7 -4 -8 -3 -4 4 5 8 2 10 -8 6 -9 -3 -14 -11
-13 -17 1 -7 -4 -11 -10 -10 -7 2 -12 -3 -10 -10 1 -6 -6 -11 -15 -11 -10 1
-16 -2 -13 -6 3 -5 2 -10 -2 -13 -5 -2 -2 -2 5 0 7 1 10 -2 7 -7 -3 -6 -13
-10 -20 -10 -9 0 -12 -6 -8 -17 5 -12 3 -14 -8 -8 -11 7 -11 5 1 -10 8 -10 10
-16 4 -12 -7 4 -15 0 -18 -9 -4 -10 -12 -14 -22 -10 -15 6 -15 4 -3 -11 7 -10
9 -15 5 -11 -5 4 -15 0 -23 -10 -9 -10 -11 -11 -7 -2 7 13 6 13 -10 1 -13 -11
-14 -16 -4 -22 10 -7 9 -9 -4 -9 -16 0 -22 -11 -20 -31 1 -4 -8 -5 -19 -2 -13
4 -19 1 -17 -7 2 -7 -3 -15 -11 -18 -9 -3 -11 0 -6 8 6 9 4 11 -4 6 -7 -5 -10
-10 -7 -13 9 -9 -14 -44 -25 -38 -5 4 -9 1 -9 -5 0 -6 -4 -9 -9 -6 -5 3 -8 -2
-7 -12 1 -11 -8 -18 -24 -20 -33 -5 -60 -30 -53 -50 4 -13 1 -12 -11 3 -15 19
-16 19 -9 1 4 -13 3 -17 -5 -12 -8 4 -12 0 -12 -10 0 -16 -1 -16 -16 2 -8 10
-12 13 -8 5 5 -10 3 -13 -9 -8 -12 4 -14 2 -10 -10 5 -12 2 -15 -11 -10 -10 4
-23 -1 -33 -13 -14 -15 -20 -17 -31 -7 -13 10 -14 8 -8 -11 8 -23 -8 -32 -17
-9 -3 6 -6 2 -6 -9 -1 -13 -9 -24 -20 -27 -14 -3 -18 0 -15 12 2 9 -2 3 -10
-14 -8 -16 -15 -23 -16 -15 0 13 -2 13 -9 0 -6 -8 -7 -19 -3 -25 3 -5 -2 -4
-11 4 -15 12 -17 12 -11 -3 3 -9 1 -16 -5 -16 -6 0 -10 -6 -8 -12 1 -8 -6 -12
-16 -10 -10 2 -16 -3 -15 -10 2 -7 -2 -12 -9 -11 -8 2 -10 -4 -6 -14 5 -11 3
-14 -6 -8 -10 6 -11 3 -1 -15 7 -14 8 -20 1 -16 -5 4 -17 -4 -26 -18 -9 -14
-22 -24 -28 -22 -7 1 -9 1 -4 -1 4 -3 5 -9 2 -13 -3 -5 0 -12 6 -16 8 -5 9 -3
4 6 -5 9 -4 11 3 6 21 -13 13 -28 -10 -20 -20 6 -21 5 -9 -10 12 -14 11 -16
-4 -16 -15 0 -16 -2 -4 -17 8 -10 9 -14 2 -10 -6 4 -14 3 -18 -3 -3 -5 -1 -10
6 -10 7 0 9 -3 6 -7 -4 -3 0 -14 8 -23 13 -14 13 -17 0 -17 -8 0 -11 5 -8 11
4 6 -1 5 -10 -3 -20 -16 -23 -36 -4 -25 7 5 6 0 -3 -11 -8 -10 -13 -20 -12
-22 2 -3 0 -8 -4 -11 -4 -4 -4 -2 0 5 3 6 2 14 -3 17 -11 7 -9 -13 2 -32 5 -7
13 -9 19 -6 7 5 8 2 4 -5 -5 -7 -15 -10 -25 -7 -13 5 -13 4 2 -8 14 -10 15
-15 5 -19 -10 -4 -10 -8 2 -16 12 -8 12 -11 1 -11 -7 0 -11 -6 -7 -15 3 -8 1
-15 -3 -15 -5 0 -11 6 -14 13 -2 6 -4 -1 -4 -16 0 -18 -9 -34 -23 -44 -15 -11
-19 -18 -11 -26 6 -6 11 -18 11 -26 0 -8 -3 -11 -7 -8 -8 9 -32 -24 -33 -45 0
-10 -5 -18 -11 -18 -5 0 -7 4 -4 10 4 6 -1 7 -11 3 -15 -6 -15 -7 1 -15 15 -9
15 -11 -5 -25 -18 -12 -19 -17 -8 -31 11 -13 10 -15 -4 -9 -10 3 -17 3 -17 -1
3 -20 -3 -32 -16 -32 -8 0 -15 -5 -15 -11 0 -5 6 -7 13 -3 8 5 8 3 -2 -9 -7
-9 -17 -15 -21 -12 -5 3 -6 -5 -2 -17 3 -13 1 -19 -5 -15 -6 4 -14 0 -17 -9
-9 -23 -8 -26 7 -18 6 4 4 -2 -6 -13 -9 -11 -17 -31 -17 -44 0 -14 -6 -31 -12
-38 -10 -11 -10 -13 -1 -7 12 7 18 -7 13 -29 -2 -5 -2 -25 -1 -42 1 -19 -3
-33 -9 -33 -7 0 -5 -6 3 -15 9 -8 13 -24 10 -36 -5 -16 -3 -20 6 -14 10 6 11
3 2 -13 -7 -14 -8 -23 -1 -27 6 -4 8 -11 5 -16 -3 -5 0 -6 8 -3 10 4 15 -1 14
-13 -1 -10 3 -17 9 -16 10 2 14 -10 15 -50 0 -10 5 -15 11 -11 7 4 8 2 4 -4
-4 -7 -2 -12 4 -12 6 0 8 -4 5 -10 -3 -5 -1 -10 6 -10 8 0 7 -5 -2 -17 -8 -9
-9 -14 -3 -10 7 4 15 0 18 -9 3 -8 11 -12 17 -8 7 4 9 3 5 -4 -3 -6 -2 -13 3
-16 5 -4 5 -20 -2 -41 -8 -28 -8 -38 3 -48 10 -10 11 -9 5 3 -7 13 -6 13 7 2
15 -12 23 -66 7 -57 -4 3 -11 0 -15 -6 -4 -7 -3 -9 3 -6 5 3 17 -2 25 -12 12
-15 13 -22 5 -31 -9 -10 -8 -12 3 -8 11 4 16 -1 16 -13 0 -13 -5 -18 -15 -14
-11 4 -11 2 -3 -8 9 -10 8 -17 -1 -27 -10 -10 -9 -11 2 -5 11 6 13 4 8 -9 -6
-14 -3 -16 16 -11 14 4 18 3 9 -3 -10 -7 -10 -11 2 -21 17 -14 10 -44 -8 -34
-6 3 -2 -4 8 -16 17 -19 17 -21 3 -15 -13 5 -16 2 -10 -12 5 -13 3 -15 -7 -9
-9 5 -11 4 -6 -4 4 -6 12 -9 17 -6 15 10 10 -7 -9 -28 -9 -11 -11 -17 -5 -13
8 4 13 1 13 -9 0 -10 -5 -13 -12 -9 -7 4 -5 -2 4 -13 20 -21 24 -38 8 -28 -6
4 -7 -1 -3 -11 5 -13 3 -15 -8 -9 -12 8 -12 6 0 -8 15 -18 26 -23 16 -7 -3 6
-1 10 4 10 6 0 11 -9 11 -21 0 -11 4 -18 8 -15 11 6 9 -34 -1 -51 -4 -6 -1
-13 5 -16 10 -3 10 -8 -1 -18 -12 -12 -13 -12 -6 0 6 10 4 12 -5 6 -10 -6 -9
-11 5 -22 15 -10 16 -16 7 -25 -15 -15 -16 -32 -2 -23 5 3 10 1 10 -4 0 -6 -4
-11 -10 -11 -5 0 -10 -5 -10 -11 0 -5 4 -8 9 -5 10 7 9 -13 -2 -30 -3 -6 -4
-14 0 -18 11 -10 12 -55 2 -61 -5 -4 -9 -11 -9 -16 0 -6 4 -7 10 -4 5 3 10 1
10 -4 0 -6 -5 -11 -12 -11 -9 0 -9 -3 0 -12 7 -7 12 -25 12 -41 0 -17 4 -26
10 -22 6 4 10 -6 8 -25 -2 -22 -6 -29 -17 -25 -11 4 -12 3 -1 -10 7 -8 17 -12
24 -8 6 4 4 -1 -4 -11 -13 -16 -12 -20 6 -35 11 -9 23 -24 27 -34 4 -10 11
-16 16 -12 13 8 34 -32 24 -48 -10 -16 -11 -47 -1 -41 4 3 8 0 8 -6 0 -6 5 -8
10 -5 6 3 10 2 10 -3 0 -5 10 -14 23 -21 12 -6 14 -9 4 -6 -10 3 -15 1 -12 -5
3 -6 15 -10 26 -10 10 0 19 -5 19 -11 0 -5 3 -8 8 -6 9 5 42 -30 35 -37 -4 -3
-1 -6 5 -6 7 0 12 6 12 13 0 6 5 4 11 -6 5 -9 7 -22 3 -29 -4 -6 -3 -8 4 -4 6
3 14 2 17 -4 5 -8 12 -7 23 2 12 10 14 10 8 1 -10 -17 16 -17 34 -1 8 7 6 2
-5 -11 -22 -27 -23 -26 33 -4 6 3 12 0 12 -7 0 -6 -5 -8 -12 -4 -7 4 -8 3 -4
-4 4 -6 14 -8 23 -5 12 5 14 3 8 -7 -6 -10 -4 -11 6 -4 25 15 41 13 46 -7 6
-22 14 -24 30 -8 8 8 13 7 18 -2 5 -8 4 -10 -3 -5 -8 5 -10 2 -6 -8 5 -13 9
-12 23 6 14 16 20 18 26 8 5 -8 4 -11 -2 -7 -5 3 -10 0 -10 -8 0 -11 4 -12 14
-4 10 9 13 8 13 -2 1 -8 6 -5 13 7 11 20 13 20 26 6 13 -14 15 -13 22 4 4 10
8 13 8 7 1 -7 8 -13 17 -13 8 0 22 -7 31 -15 8 -8 19 -13 24 -9 6 3 17 0 25
-7 12 -10 13 -9 9 3 -5 11 1 14 25 10 16 -2 30 -8 30 -13 0 -5 3 -8 8 -8 4 1
9 1 12 -1 3 -1 15 -3 28 -6 16 -3 21 0 17 8 -4 7 0 5 8 -4 13 -16 15 -16 31 0
10 9 16 13 15 7 -4 -24 2 -34 18 -28 12 5 14 3 8 -8 -7 -11 -5 -11 10 1 15 12
17 12 10 1 -6 -11 -3 -13 12 -9 16 4 19 1 17 -19 -2 -21 0 -22 14 -11 14 11
15 10 9 -5 -4 -11 -3 -16 3 -12 5 3 18 1 27 -5 17 -11 17 -11 0 -6 -15 5 -16
2 -7 -14 6 -11 13 -20 16 -20 3 0 2 4 -1 10 -3 6 1 7 9 4 9 -3 15 -9 14 -12
-2 -20 3 -32 15 -29 6 1 11 -6 11 -16 -2 -14 1 -15 12 -6 8 7 17 9 21 5 3 -3
2 -6 -4 -6 -5 0 -10 -6 -10 -14 0 -8 8 -11 20 -8 14 3 18 1 13 -6 -4 -7 -1
-12 8 -12 9 0 16 -6 16 -12 0 -7 9 -24 20 -38 11 -14 19 -18 17 -10 -2 8 -2
12 0 7 3 -4 8 -5 13 -2 4 3 7 -3 6 -13 0 -10 5 -16 13 -14 12 3 12 1 0 -14
-12 -15 -12 -17 0 -9 11 6 13 4 7 -10 -5 -15 -4 -16 9 -5 15 12 21 4 16 -23
-1 -5 3 -6 9 -2 6 3 17 -1 26 -10 9 -9 19 -13 22 -10 4 3 0 10 -8 15 -8 6 -10
10 -4 10 7 0 19 -12 29 -26 11 -17 20 -22 28 -16 22 17 46 21 53 10 4 -7 3 -8
-4 -4 -25 15 -10 -3 16 -20 19 -12 23 -13 15 -2 -11 12 -9 14 7 13 11 -1 23
-5 27 -10 5 -4 2 -5 -4 -1 -9 5 -11 2 -6 -9 4 -13 8 -14 14 -4 4 7 6 16 3 21
-2 4 5 12 16 18 11 6 20 7 20 1 0 -5 7 -12 16 -15 15 -6 15 -4 3 11 -13 17
-13 17 13 0 26 -16 27 -16 21 0 -6 16 -5 16 10 4 15 -12 17 -12 12 2 -4 8 -1
18 6 23 8 5 10 3 4 -6 -5 -8 -3 -11 4 -9 7 3 11 8 9 11 -5 11 35 36 49 31 11
-4 11 -8 1 -22 -10 -13 -9 -13 8 1 11 10 26 18 33 18 7 0 11 6 8 13 -3 8 1 14
9 14 7 0 11 -3 9 -7 -2 -3 5 -6 16 -6 10 0 19 3 19 7 0 4 9 9 19 12 15 4 19 0
16 -17 -4 -21 -3 -20 12 2 15 22 17 22 36 5 11 -10 17 -13 14 -7 -8 13 41 12
63 -1 10 -6 12 -4 6 11 -6 15 -2 14 20 -6 15 -14 24 -19 19 -11 -6 11 -3 13
13 9 16 -4 19 -2 15 11 -4 13 -2 13 10 -2 10 -12 17 -14 22 -7 8 12 25 4 25
-13 0 -7 -4 -6 -10 3 -5 8 -10 10 -10 4 0 -18 13 -24 27 -13 10 9 13 7 14 -7
0 -11 3 -14 6 -6 2 6 14 12 24 12 11 0 17 -4 14 -10 -3 -5 -1 -10 5 -10 6 0 8
-5 4 -12 -5 -9 -2 -9 9 1 11 9 17 10 17 2 0 -6 5 -11 11 -11 5 0 8 4 4 9 -3 5
-1 13 5 16 6 4 9 1 8 -6 -2 -6 7 -12 19 -14 12 -1 20 2 17 6 -5 9 23 6 32 -4
4 -4 16 1 27 10 11 10 17 13 14 7 -4 -7 1 -18 10 -25 9 -8 14 -9 10 -3 -10 16
18 25 32 11 7 -7 12 -7 11 -2 -2 6 -2 17 -1 25 1 13 2 13 11 0 8 -13 10 -12
10 3 0 9 5 17 11 17 5 0 8 -4 4 -9 -3 -5 -1 -12 5 -16 5 -3 10 -1 10 5 0 7 6
10 13 7 6 -2 18 3 25 12 8 9 11 10 7 3 -3 -6 -1 -12 4 -12 6 0 11 5 11 10 0 6
6 10 13 9 18 -3 47 12 47 24 0 5 -9 2 -19 -7 -15 -14 -21 -15 -27 -4 -4 7 -3
10 1 5 5 -4 17 0 27 10 10 9 18 13 18 8 0 -4 9 3 21 16 l20 24 -12 -25 -11
-25 25 25 c13 14 23 28 20 32 -2 4 4 5 13 1 14 -5 16 -3 11 12 -7 16 -5 16 10
4 10 -7 15 -10 11 -5 -9 11 14 35 27 28 6 -3 4 1 -3 10 -11 13 -10 16 5 14 12
-1 18 6 18 20 1 22 26 54 44 54 6 0 8 6 5 14 -3 8 0 17 7 22 8 5 10 3 4 -6 -5
-9 -4 -11 4 -6 9 6 9 11 -1 24 -11 14 -10 15 6 9 17 -7 17 -6 5 10 -8 9 -9 14
-3 10 17 -10 56 27 43 40 -7 7 -2 9 18 6 22 -4 25 -2 13 6 -14 10 -7 16 14 12
5 -1 6 6 2 15 -5 14 -4 15 9 4 13 -11 14 -10 8 5 -5 15 -3 17 12 12 14 -6 16
-5 6 6 -9 11 -7 17 6 28 11 9 14 10 9 2 -4 -7 -2 -13 4 -13 6 0 15 10 20 23 9
22 9 22 10 -3 1 -25 1 -25 10 -3 5 13 12 23 15 23 4 0 3 -5 -1 -12 -5 -8 -2
-9 12 -4 10 4 24 9 31 10 7 1 16 6 20 11 4 4 2 5 -4 1 -7 -4 -13 -2 -13 3 0
14 17 14 25 1 10 -16 25 -1 19 18 -5 13 -4 14 4 3 6 -9 15 -10 23 -5 19 12 33
12 41 -1 5 -6 8 -6 8 3 0 6 5 12 11 12 5 0 7 -4 4 -10 -3 -6 1 -7 10 -4 10 4
14 13 10 22 -3 9 -3 13 0 10 4 -4 17 -3 30 2 15 6 27 4 35 -3 10 -9 11 -9 6 1
-7 11 6 17 28 13 5 -1 5 6 2 16 -6 15 -4 14 15 -3 12 -10 19 -14 16 -7 -9 14
29 43 55 43 17 0 23 12 19 34 -1 5 5 4 13 -4 13 -10 19 -10 31 0 13 11 13 15
3 21 -9 6 -6 9 10 9 13 0 20 4 17 10 -3 6 -1 10 5 10 6 0 8 5 4 13 -5 8 -2 7
9 -2 15 -12 17 -12 12 2 -4 8 -1 18 6 23 8 5 10 3 4 -6 -5 -9 -4 -11 4 -6 6 4
9 19 7 32 -4 23 -3 24 12 12 15 -12 15 -10 -1 14 -16 25 -16 27 0 21 11 -4 14
-3 9 6 -4 6 -2 18 4 26 6 8 8 20 4 27 -6 10 -5 11 7 1 12 -10 15 -8 15 7 0 10
-4 16 -8 14 -4 -3 -8 0 -8 7 0 7 8 9 21 6 16 -4 18 -3 8 9 -9 11 -8 18 2 31 8
9 9 14 3 10 -7 -4 -14 0 -18 8 -3 8 0 17 6 21 7 4 8 3 4 -4 -5 -8 -1 -10 10
-5 16 6 15 8 -4 16 -20 9 -20 11 -5 22 13 9 13 14 3 20 -9 6 -11 4 -5 -5 6 -9
4 -11 -5 -5 -10 6 -9 11 5 22 18 13 18 13 0 13 -18 0 -18 1 1 16 17 14 17 15
1 10 -11 -3 -16 -2 -12 4 3 6 14 10 23 10 14 0 15 2 2 9 -8 6 -18 7 -22 5 -15
-10 -8 9 10 23 16 14 16 14 -2 8 -19 -6 -19 -5 -3 13 16 18 14 58 -2 47 -4 -2
-8 2 -8 10 0 8 3 13 6 11 3 -2 13 3 20 12 13 14 12 15 -8 9 -17 -4 -21 -3 -13
5 6 6 8 17 5 26 -4 9 -2 13 4 9 5 -3 10 1 10 9 0 8 -6 13 -14 10 -10 -4 -10
-1 -1 14 7 10 17 16 23 13 5 -4 1 3 -9 15 -11 12 -14 22 -8 22 7 0 12 5 12 11
0 5 -6 7 -12 4 -7 -4 -4 0 6 9 10 8 23 13 27 10 5 -3 6 2 3 10 -3 9 -10 16
-15 16 -5 0 -9 5 -9 11 0 5 5 7 10 4 6 -3 10 3 10 14 0 12 5 21 11 21 8 0 7 5
-1 15 -11 13 -10 14 4 9 12 -5 15 -2 9 12 -4 11 -3 15 4 11 18 -11 21 17 4 30
-14 10 -12 11 9 7 14 -3 21 -2 15 3 -5 4 -11 14 -13 22 -3 12 -1 12 14 0 11
-9 15 -9 10 -2 -8 14 17 57 27 46 4 -3 7 -1 7 5 0 7 -5 12 -10 12 -6 0 -1 10
10 22 11 12 18 28 16 35 -3 8 1 10 12 6 14 -5 15 -4 4 8 -11 11 -7 18 19 40
24 19 29 28 19 34 -9 6 -11 4 -5 -5 6 -9 4 -11 -5 -5 -10 6 -9 12 7 24 11 9
19 24 17 34 -1 9 1 15 4 13 4 -2 14 3 22 12 13 14 12 15 -3 9 -9 -3 -19 -2
-22 3 -4 6 1 10 10 10 12 0 15 5 11 16 -5 12 -2 15 10 10 14 -5 15 -4 4 9 -11
13 -10 15 2 10 10 -4 14 2 13 24 0 16 -3 27 -7 24 -5 -2 -8 5 -8 17 0 12 4 19
9 15 10 -6 6 33 -4 43 -2 3 1 12 8 20 9 13 9 14 0 8 -9 -5 -13 -1 -13 13 0 10
-5 21 -11 23 -7 2 -13 18 -14 36 -2 18 1 29 7 26 5 -3 4 3 -3 14 -7 12 -17 18
-23 15 -5 -3 -6 -1 -2 5 3 5 3 12 -1 15 -5 2 -2 2 5 1 6 -2 12 1 12 6 0 6 -7
10 -15 10 -8 0 -16 9 -16 20 -1 11 -2 26 -3 33 -1 6 -8 18 -16 25 -10 9 -10
11 -2 7 11 -6 12 -3 3 14 -7 12 -9 27 -5 34 5 6 -1 5 -11 -3 -14 -11 -17 -11
-11 -1 5 8 3 17 -5 22 -11 7 -11 9 3 9 9 0 20 5 24 12 4 6 3 8 -3 5 -6 -4 -13
0 -17 8 -3 8 0 15 6 15 6 0 3 10 -8 22 -10 12 -13 18 -5 13 11 -6 13 -4 8 8
-3 9 -1 19 5 23 7 5 8 2 3 -6 -5 -9 -4 -11 4 -6 9 6 9 11 0 22 -6 7 -15 11
-20 8 -5 -3 -9 0 -9 6 0 7 7 10 15 7 8 -4 17 -1 21 5 4 6 3 8 -3 5 -6 -4 -13
2 -16 13 -3 11 0 23 5 27 7 4 8 1 3 -7 -5 -9 -4 -11 3 -6 9 5 8 12 -1 26 -6
11 -15 20 -18 20 -4 0 -9 9 -12 20 -3 11 -1 20 5 20 5 0 6 5 3 10 -5 8 -12 7
-22 -2 -15 -12 -15 -11 -3 9 8 12 17 20 20 18 4 -2 4 9 2 25 -2 17 -8 27 -13
24 -5 -3 -9 0 -9 6 0 6 -4 9 -8 6 -4 -2 -8 4 -8 14 0 10 4 16 8 14 4 -3 8 0 8
5 0 6 -5 11 -12 11 -9 0 -9 3 0 12 16 16 15 28 -1 28 -15 0 -41 49 -32 58 3 3
-5 12 -17 20 -13 7 -16 11 -8 9 10 -3 16 2 16 12 0 10 -6 18 -13 18 -7 0 -9
-5 -6 -10 3 -6 1 -7 -6 -3 -9 6 -9 12 1 24 7 10 9 14 4 10 -5 -4 -18 -2 -30 4
-11 7 -25 11 -30 10 -5 -2 -4 3 3 11 9 12 8 16 -5 21 -9 3 -20 4 -25 1 -5 -4
-6 1 -3 9 3 9 11 13 18 9 6 -3 7 -2 3 3 -11 12 -30 12 -38 1 -3 -5 -9 -1 -12
8 -4 9 -3 13 3 10 15 -9 12 4 -4 21 -8 8 -21 13 -28 12 -7 -2 -14 8 -16 21 -3
19 -6 21 -13 10 -7 -11 -9 -10 -10 6 -1 11 -1 24 0 28 1 5 -3 6 -9 2 -5 -3
-10 -1 -10 6 0 7 -8 9 -21 6 -15 -4 -18 -2 -10 7 8 10 4 12 -19 11 -23 -1 -27
1 -19 11 8 10 6 12 -9 9 -17 -3 -20 1 -16 23 5 25 4 26 -9 8 -13 -17 -14 -17
-30 -1 -10 9 -24 14 -33 11 -8 -3 -13 -2 -10 3 8 13 -31 44 -45 35 -7 -4 -10
-3 -6 3 3 5 -2 15 -13 23 -11 8 -16 20 -12 29 5 14 3 14 -10 3 -14 -11 -17
-10 -20 10 -2 14 -9 22 -18 20 -12 -3 -13 -1 -2 9 6 7 12 18 12 23 0 7 -4 6
-8 -1 -5 -8 -16 5 -31 37 -13 28 -30 50 -37 50 -8 0 -14 7 -14 16 0 9 -6 14
-13 11 -10 -4 -13 2 -9 20 4 20 2 24 -8 18 -10 -6 -12 -4 -7 9 5 13 1 19 -14
23 -11 3 -18 11 -15 18 3 9 -3 11 -17 8 -18 -4 -19 -3 -7 6 13 9 12 11 -3 11
-11 0 -15 4 -11 12 5 8 2 9 -9 5 -9 -3 -19 -1 -23 5 -4 7 -3 8 4 4 7 -4 12 -2
12 3 0 6 -9 11 -21 11 -14 0 -19 5 -16 15 4 8 1 17 -5 21 -7 4 -8 3 -4 -4 5
-8 -1 -12 -16 -12 -19 0 -20 2 -8 11 12 9 10 10 -8 6 -18 -4 -22 -2 -18 10 6
14 4 14 -11 2 -15 -12 -16 -12 -11 3 9 23 -1 29 -25 16 -17 -9 -19 -8 -13 8 6
17 6 17 -11 1 -18 -15 -21 -15 -48 8 -36 29 -46 31 -39 8 4 -11 2 -14 -3 -8
-13 16 -43 18 -59 4 -12 -10 -16 -8 -21 9 -6 24 -18 28 -29 10 -4 -7 -3 -8 4
-4 8 5 10 1 5 -9 -3 -10 -8 -12 -12 -7 -8 14 -121 23 -121 11 0 -6 5 -7 12 -3
7 4 8 3 4 -5 -9 -14 -26 -5 -26 15 0 17 -16 19 -26 2 -4 -7 -3 -8 4 -4 8 5 10
1 5 -10 -4 -11 -8 -13 -11 -6 -2 7 -13 12 -23 12 -14 0 -18 4 -13 13 6 9 5 9
-8 0 -8 -7 -17 -10 -21 -7 -3 3 -15 1 -26 -6 -17 -8 -21 -8 -19 2 2 7 -3 12
-9 10 -7 -1 -13 6 -13 15 0 15 -2 16 -10 3 -6 -10 -10 -11 -10 -2 0 6 -9 12
-19 12 -10 0 -21 7 -25 15 -3 9 -12 12 -22 8 -14 -5 -16 -2 -12 15 5 19 3 20
-12 12 -24 -13 -40 -13 -20 0 11 7 11 10 2 10 -7 0 -11 4 -8 8 2 4 -5 9 -17 9
-17 2 -19 0 -7 -7 11 -7 11 -10 2 -10 -7 0 -15 6 -18 14 -3 8 -21 17 -40 21
-19 3 -32 10 -29 15 3 6 -1 7 -9 4 -9 -3 -13 -11 -9 -17 3 -6 1 -7 -6 -3 -9 6
-9 11 -1 21 8 10 8 15 -1 21 -7 4 -9 3 -6 -2 3 -6 -3 -16 -15 -23 -11 -7 -17
-8 -14 -3 10 17 -23 22 -39 6 -15 -15 -21 -7 -16 20 1 5 -5 4 -13 -4 -18 -14
-22 -25 -6 -15 16 10 11 -1 -7 -16 -11 -10 -14 -10 -9 -1 4 7 2 12 -4 12 -6 0
-9 4 -6 8 4 6 -13 7 -57 3 -5 -1 -5 -7 -1 -13 5 -9 3 -9 -9 1 -9 7 -14 17 -11
22 9 15 -3 10 -16 -6z m1327 -511 c2 -13 1 -15 -4 -4 -3 8 -11 19 -17 23 -7 6
-6 7 4 4 8 -2 16 -12 17 -23z m-2567 -48 c0 -2 -7 -7 -16 -10 -8 -3 -12 -2 -9
4 6 10 25 14 25 6z m2708 -121 c-3 -3 -9 2 -12 12 -6 14 -5 15 5 6 7 -7 10
-15 7 -18z m-3238 -605 c0 -5 -5 -10 -11 -10 -5 0 -7 5 -4 10 3 6 8 10 11 10
2 0 4 -4 4 -10z m-29 -83 c-10 -9 -11 -8 -5 6 3 10 9 15 12 12 3 -3 0 -11 -7
-18z m-127 -528 c-3 -5 -10 -7 -15 -3 -5 3 -7 10 -3 15 3 5 10 7 15 3 5 -3 7
-10 3 -15z m4011 -19 c3 -6 -1 -7 -9 -4 -18 7 -21 14 -7 14 6 0 13 -4 16 -10z
m-3825 -640 c0 -5 -2 -10 -4 -10 -3 0 -8 5 -11 10 -3 6 -1 10 4 10 6 0 11 -4
11 -10z m3570 -54 c0 -3 -4 -8 -10 -11 -5 -3 -10 -1 -10 4 0 6 5 11 10 11 6 0
10 -2 10 -4z m0 -160 c0 -3 -4 -8 -10 -11 -5 -3 -10 -1 -10 4 0 6 5 11 10 11
6 0 10 -2 10 -4z m-3513 -411 c0 -8 -4 -12 -9 -9 -4 3 -8 9 -8 15 0 5 4 9 8 9
5 0 9 -7 9 -15z m1317 -791 c3 -8 2 -12 -4 -9 -6 3 -10 10 -10 16 0 14 7 11
14 -7z"/>
<path d="M3800 4789 c0 -5 5 -7 10 -4 6 3 10 8 10 11 0 2 -4 4 -10 4 -5 0 -10
-5 -10 -11z"/>
<path d="M3930 4781 c0 -6 4 -13 10 -16 6 -3 7 1 4 9 -7 18 -14 21 -14 7z"/>
<path d="M1855 4540 c-3 -5 -1 -10 4 -10 6 0 11 5 11 10 0 6 -2 10 -4 10 -3 0
-8 -4 -11 -10z"/>
<path d="M1305 4100 c-3 -6 1 -7 9 -4 18 7 21 14 7 14 -6 0 -13 -4 -16 -10z"/>
<path d="M1115 2840 c3 -5 11 -10 16 -10 6 0 7 5 4 10 -3 6 -11 10 -16 10 -6
0 -7 -4 -4 -10z"/>
<path d="M1145 2740 c-3 -5 -1 -10 4 -10 6 0 11 5 11 10 0 6 -2 10 -4 10 -3 0
-8 -4 -11 -10z"/>
<path d="M4965 2740 c-3 -5 -2 -10 4 -10 5 0 13 5 16 10 3 6 2 10 -4 10 -5 0
-13 -4 -16 -10z"/>
<path d="M1196 2522 c-3 -5 1 -9 9 -9 8 0 12 4 9 9 -3 4 -7 8 -9 8 -2 0 -6 -4
-9 -8z"/>
<path d="M4766 1842 c-3 -5 1 -9 9 -9 8 0 12 4 9 9 -3 4 -7 8 -9 8 -2 0 -6 -4
-9 -8z"/>
<path d="M1317 1704 c-3 -5 1 -15 9 -22 16 -14 18 -5 5 17 -5 7 -11 9 -14 5z"/>
<path d="M4560 1610 c-8 -5 -12 -11 -9 -14 2 -3 11 -1 19 4 8 5 12 11 9 14 -2
3 -11 1 -19 -4z"/>
<path d="M1480 1500 c-9 -6 -10 -10 -3 -10 6 0 15 5 18 10 8 12 4 12 -15 0z"/>
<path d="M3946 1228 c3 -5 10 -6 15 -3 13 9 11 12 -6 12 -8 0 -12 -4 -9 -9z"/>
</g>
</svg>
